<svg id="svg" version="1.1" xmlns="http://www.w3.org/2000/svg" xmlns:xlink="http://www.w3.org/1999/xlink" width="400" height="400" viewBox="0, 0, 400,400"><g id="svgg"><path id="path0" d="M93.438 107.899 C 93.781 108.115,100.766 112.109,108.958 116.776 C 117.151 121.443,129.584 128.531,136.586 132.527 C 143.589 136.522,149.417 139.792,149.539 139.792 C 149.660 139.792,151.899 138.560,154.515 137.055 C 157.131 135.549,160.443 133.643,161.875 132.819 C 163.307 131.995,167.831 129.383,171.927 127.014 C 176.023 124.646,182.727 120.776,186.823 118.414 C 190.919 116.052,194.810 113.795,195.469 113.399 L 196.667 112.678 196.667 110.089 L 196.667 107.500 144.740 107.504 C 93.820 107.507,92.825 107.515,93.438 107.899 M203.542 110.085 L 203.542 112.670 210.677 116.789 C 214.602 119.055,220.109 122.235,222.917 123.857 C 228.452 127.056,234.939 130.796,243.438 135.688 C 246.417 137.403,249.302 139.076,249.850 139.405 L 250.846 140.004 254.017 138.199 C 255.761 137.206,262.813 133.188,269.688 129.270 C 276.563 125.351,284.297 120.945,286.875 119.478 C 299.626 112.224,307.613 107.660,307.691 107.584 C 307.739 107.538,284.325 107.500,255.660 107.500 L 203.542 107.500 203.542 110.085 M89.546 114.010 C 89.773 114.383,92.393 118.906,95.368 124.063 C 98.343 129.219,103.755 138.594,107.396 144.896 C 111.037 151.198,116.614 160.854,119.790 166.354 C 122.966 171.854,126.811 178.510,128.334 181.146 C 129.856 183.781,132.156 187.766,133.444 190.000 C 139.562 200.617,141.069 203.222,141.128 203.281 C 141.164 203.317,142.120 202.799,143.253 202.132 L 145.313 200.917 145.359 173.115 L 145.405 145.313 136.921 140.481 C 113.990 127.422,95.810 117.054,92.746 115.291 C 88.872 113.060,88.996 113.110,89.546 114.010 M304.167 117.389 C 297.309 121.311,277.627 132.532,262.343 141.234 L 254.582 145.653 254.635 173.265 L 254.688 200.878 256.771 202.096 C 257.917 202.766,258.963 203.318,259.096 203.324 C 259.228 203.329,260.670 201.013,262.300 198.177 C 263.929 195.341,265.706 192.271,266.248 191.354 C 266.790 190.438,268.502 187.484,270.052 184.792 C 271.602 182.099,275.984 174.505,279.790 167.917 C 283.596 161.328,288.495 152.844,290.676 149.063 C 292.858 145.281,295.648 140.453,296.875 138.333 C 298.103 136.214,301.430 130.448,304.269 125.521 C 307.108 120.594,309.844 115.872,310.350 115.028 C 310.857 114.184,311.243 113.472,311.208 113.445 C 311.174 113.419,308.005 115.194,304.167 117.389 M146.771 207.905 C 145.522 208.638,144.715 209.240,144.755 209.408 C 144.792 209.562,147.690 214.656,151.195 220.729 C 159.471 235.067,168.187 250.163,181.208 272.708 C 186.998 282.734,192.811 292.813,194.126 295.104 C 195.441 297.396,196.597 299.360,196.696 299.469 C 196.796 299.579,196.873 285.206,196.870 266.865 L 196.865 234.063 195.151 233.097 C 194.209 232.566,191.938 231.264,190.104 230.203 C 188.271 229.143,184.661 227.059,182.083 225.572 C 179.505 224.085,175.521 221.785,173.229 220.462 C 170.938 219.139,167.656 217.246,165.938 216.256 C 161.267 213.565,154.589 209.706,151.813 208.094 C 148.876 206.389,149.327 206.406,146.771 207.905 M244.688 210.449 C 241.135 212.510,236.964 214.924,235.417 215.814 C 223.482 222.682,216.943 226.453,215.521 227.291 C 214.604 227.830,211.534 229.608,208.698 231.241 L 203.542 234.211 203.548 266.949 C 203.554 296.220,203.588 299.643,203.870 299.271 C 204.043 299.042,204.995 297.448,205.984 295.729 C 206.974 294.010,209.300 289.979,211.153 286.771 C 213.007 283.563,218.581 273.906,223.540 265.313 C 228.499 256.719,234.806 245.797,237.556 241.042 C 253.021 214.294,255.647 209.729,255.689 209.512 C 255.723 209.335,251.560 206.698,251.250 206.700 C 251.193 206.701,248.240 208.387,244.688 210.449 " stroke="none" fill="#fbfbfb" fill-rule="evenodd"></path><path id="path1" d="M192.281 123.044 C 187.990 125.520,182.979 128.411,181.146 129.468 C 165.605 138.430,162.043 140.486,159.597 141.911 C 158.058 142.808,156.722 143.542,156.628 143.542 C 156.118 143.542,156.672 143.987,158.490 145.036 C 167.584 150.287,200.100 168.750,200.253 168.750 C 200.360 168.750,202.808 167.404,205.693 165.760 C 208.577 164.115,216.750 159.457,223.854 155.410 C 230.958 151.362,238.344 147.153,240.268 146.056 C 242.191 144.960,243.770 143.978,243.776 143.874 C 243.785 143.726,233.662 137.786,222.292 131.268 C 221.547 130.841,216.281 127.803,210.590 124.517 C 204.899 121.230,200.207 118.542,200.163 118.542 C 200.119 118.542,196.572 120.568,192.281 123.044 M152.083 174.761 C 152.083 194.994,152.138 200.410,152.344 200.575 C 152.487 200.690,157.479 203.597,163.438 207.034 C 169.396 210.471,179.326 216.201,185.504 219.767 C 191.683 223.333,196.768 226.250,196.806 226.250 C 196.844 226.250,196.875 214.643,196.875 200.457 L 196.875 174.665 175.179 162.280 C 163.246 155.469,153.168 149.730,152.783 149.526 L 152.083 149.157 152.083 174.761 M243.854 151.736 C 241.792 152.914,232.229 158.361,222.604 163.840 C 212.979 169.318,204.753 174.025,204.323 174.299 L 203.542 174.798 203.542 200.546 C 203.542 224.983,203.560 226.287,203.906 226.155 C 204.107 226.078,207.693 224.039,211.875 221.623 C 216.057 219.208,223.792 214.744,229.063 211.703 C 234.333 208.662,240.708 204.981,243.229 203.522 L 247.813 200.870 247.865 175.227 C 247.895 161.123,247.848 149.585,247.761 149.588 C 247.675 149.591,245.917 150.557,243.854 151.736 " stroke="none" fill="#fa1b43" fill-rule="evenodd"></path><path id="path2" d="M16.458 67.485 C 16.458 67.591,16.772 68.224,17.156 68.891 C 17.540 69.558,18.541 71.323,19.381 72.813 C 20.220 74.302,21.156 75.896,21.461 76.354 C 21.765 76.813,22.238 77.609,22.512 78.125 C 23.213 79.446,25.795 83.919,26.361 84.792 C 26.620 85.193,27.229 86.271,27.713 87.188 C 28.198 88.104,28.667 88.948,28.756 89.063 C 28.904 89.253,31.074 92.998,35.153 100.104 C 36.008 101.594,37.339 103.891,38.111 105.208 C 38.883 106.526,39.917 108.307,40.408 109.167 C 40.899 110.026,42.357 112.557,43.648 114.792 C 44.939 117.026,46.535 119.792,47.195 120.938 C 47.855 122.083,49.051 124.146,49.853 125.521 C 50.654 126.896,52.361 129.849,53.645 132.083 C 57.482 138.758,57.722 139.173,59.181 141.667 C 59.952 142.984,61.074 144.953,61.674 146.042 C 62.273 147.130,63.076 148.510,63.458 149.108 C 63.840 149.705,64.394 150.671,64.689 151.253 C 65.386 152.628,65.413 152.633,67.945 151.905 C 69.132 151.563,71.414 150.943,73.015 150.526 C 74.617 150.109,75.963 149.732,76.007 149.688 C 76.051 149.644,75.668 148.923,75.156 148.085 C 74.346 146.761,71.728 142.205,70.238 139.528 C 69.968 139.043,69.162 137.661,68.448 136.458 C 67.734 135.255,66.792 133.615,66.357 132.813 C 65.921 132.010,64.794 130.042,63.853 128.438 C 60.931 123.456,58.308 118.926,57.338 117.188 C 56.826 116.271,55.669 114.279,54.766 112.761 C 53.864 111.243,53.125 109.955,53.125 109.899 C 53.125 109.844,52.860 109.351,52.536 108.805 C 50.155 104.793,49.043 102.884,47.708 100.521 C 46.867 99.031,46.016 97.577,45.818 97.289 C 45.620 97.001,44.994 95.922,44.426 94.893 C 43.858 93.863,42.759 91.943,41.983 90.625 C 41.208 89.307,40.195 87.526,39.733 86.667 C 39.270 85.807,38.776 84.964,38.634 84.792 C 38.492 84.620,37.574 83.049,36.594 81.302 L 34.813 78.125 76.052 78.125 C 109.156 78.125,117.292 78.073,117.292 77.862 C 117.292 77.717,116.863 76.240,116.339 74.580 C 115.816 72.921,115.092 70.602,114.732 69.427 L 114.076 67.292 65.267 67.292 C 35.379 67.292,16.458 67.367,16.458 67.485 M287.410 68.385 C 287.240 68.987,286.581 71.305,285.946 73.537 C 285.311 75.769,284.792 77.668,284.792 77.756 C 284.792 77.844,302.881 77.939,324.989 77.968 L 365.187 78.021 364.235 79.583 C 363.712 80.443,362.907 81.849,362.447 82.708 C 361.988 83.568,361.497 84.411,361.357 84.583 C 361.120 84.874,359.812 87.139,357.813 90.719 C 357.354 91.540,356.294 93.378,355.455 94.804 C 353.553 98.040,351.886 100.928,349.150 105.729 C 347.974 107.792,346.764 109.854,346.460 110.313 C 346.157 110.771,345.554 111.802,345.120 112.604 C 344.687 113.406,343.437 115.609,342.342 117.500 C 341.248 119.391,339.321 122.719,338.061 124.896 C 336.800 127.073,334.916 130.307,333.874 132.083 C 332.832 133.859,331.977 135.359,331.974 135.416 C 331.972 135.474,331.164 136.880,330.180 138.542 C 329.196 140.203,328.224 141.891,328.021 142.292 C 327.818 142.693,326.921 144.240,326.027 145.729 C 324.002 149.103,324.032 148.956,325.313 149.269 C 326.566 149.576,331.636 150.916,333.593 151.459 L 334.998 151.848 335.494 150.976 C 335.767 150.497,336.532 149.120,337.194 147.917 C 337.856 146.714,338.567 145.487,338.772 145.190 C 338.978 144.894,339.769 143.535,340.530 142.170 C 341.290 140.804,342.547 138.609,343.322 137.292 C 345.631 133.368,348.520 128.383,349.903 125.938 C 351.187 123.667,351.577 122.995,355.417 116.444 C 356.505 114.586,357.464 112.891,357.546 112.677 C 357.629 112.462,358.577 110.811,359.654 109.008 C 360.730 107.205,362.011 104.979,362.500 104.063 C 362.990 103.146,363.505 102.255,363.647 102.083 C 363.872 101.808,365.645 98.754,368.000 94.583 C 368.420 93.839,369.027 92.807,369.349 92.292 C 369.670 91.776,370.478 90.370,371.144 89.167 C 371.811 87.964,372.857 86.158,373.470 85.154 C 374.082 84.150,374.583 83.272,374.583 83.204 C 374.583 83.135,375.043 82.316,375.605 81.383 C 376.167 80.451,377.650 77.906,378.901 75.729 C 380.153 73.552,381.709 70.862,382.359 69.751 C 383.009 68.640,383.542 67.632,383.542 67.511 C 383.542 67.358,369.041 67.292,335.631 67.292 L 287.720 67.292 287.410 68.385 M43.333 82.717 C 43.333 83.070,44.094 84.485,46.241 88.125 C 47.356 90.016,48.956 92.781,49.796 94.271 C 50.637 95.760,51.576 97.354,51.885 97.813 C 52.193 98.271,52.789 99.302,53.210 100.104 C 53.631 100.906,54.624 102.641,55.416 103.958 C 56.209 105.276,57.155 106.915,57.519 107.601 C 57.883 108.287,58.533 109.412,58.964 110.101 C 59.395 110.790,60.351 112.432,61.087 113.750 C 62.528 116.328,65.336 121.165,67.920 125.521 C 68.804 127.010,69.820 128.811,70.179 129.523 C 70.537 130.234,71.237 131.453,71.734 132.231 C 72.231 133.009,73.371 134.958,74.268 136.563 C 75.164 138.167,76.339 140.182,76.879 141.042 C 77.419 141.901,78.098 143.073,78.387 143.646 C 78.677 144.219,79.838 146.254,80.968 148.169 C 82.097 150.084,83.571 152.615,84.243 153.794 C 85.480 155.963,86.461 157.655,89.109 162.188 C 89.913 163.563,90.925 165.344,91.358 166.146 C 91.792 166.948,92.738 168.562,93.461 169.732 C 94.184 170.902,94.977 172.262,95.224 172.753 C 95.471 173.244,96.583 175.193,97.696 177.083 C 100.236 181.397,103.469 186.969,105.010 189.688 C 105.659 190.833,107.388 193.833,108.853 196.354 C 113.458 204.281,114.486 206.061,116.315 209.271 C 117.294 210.990,118.426 212.927,118.831 213.577 C 119.236 214.226,120.006 215.539,120.542 216.493 C 121.078 217.448,121.912 218.934,122.396 219.796 C 122.881 220.657,123.605 221.876,124.006 222.504 C 124.407 223.132,125.023 224.217,125.375 224.916 C 125.727 225.615,126.889 227.650,127.956 229.439 C 129.023 231.227,130.686 234.078,131.651 235.773 C 132.616 237.467,133.517 238.995,133.653 239.167 C 133.789 239.339,134.202 240.042,134.571 240.729 C 135.282 242.052,137.239 245.462,140.728 251.458 C 141.895 253.464,143.957 257.026,145.310 259.375 C 146.664 261.724,148.354 264.630,149.065 265.833 C 149.777 267.036,150.903 269.005,151.567 270.208 C 152.231 271.411,153.216 273.099,153.755 273.958 C 154.294 274.818,154.995 276.036,155.312 276.667 C 155.629 277.297,156.818 279.348,157.955 281.225 C 159.091 283.102,160.264 285.118,160.561 285.704 C 160.858 286.291,161.978 288.236,163.050 290.027 C 164.123 291.818,165.000 293.334,165.000 293.396 C 165.000 293.495,165.798 294.867,168.256 298.990 C 168.643 299.637,168.958 300.223,168.958 300.291 C 168.958 300.360,169.599 301.471,170.382 302.760 C 171.165 304.049,172.117 305.667,172.496 306.354 C 173.166 307.568,174.471 309.821,179.010 317.604 C 180.212 319.667,181.636 322.151,182.173 323.125 C 182.710 324.099,183.502 325.458,183.933 326.146 C 184.364 326.833,185.052 328.005,185.461 328.750 C 185.870 329.495,186.700 330.948,187.306 331.979 C 187.911 333.010,189.431 335.635,190.682 337.813 C 191.933 339.990,193.356 342.427,193.843 343.229 C 194.329 344.031,195.463 346.000,196.361 347.604 C 197.259 349.208,198.106 350.661,198.244 350.833 C 198.381 351.005,198.847 351.826,199.279 352.656 C 200.280 354.584,200.272 354.586,201.857 351.815 C 203.347 349.210,206.823 343.205,209.619 338.405 C 210.631 336.668,211.458 335.189,211.458 335.118 C 211.458 335.048,211.819 334.406,212.260 333.693 C 213.345 331.936,214.931 329.225,216.125 327.083 C 216.668 326.109,217.762 324.234,218.556 322.917 C 219.350 321.599,220.230 320.052,220.513 319.479 C 220.795 318.906,221.475 317.728,222.024 316.861 C 222.572 315.995,223.443 314.514,223.958 313.570 C 224.474 312.627,225.652 310.571,226.575 309.001 C 227.499 307.431,228.808 305.161,229.483 303.958 C 230.159 302.755,231.082 301.161,231.535 300.417 C 231.989 299.672,232.942 298.031,233.655 296.771 C 234.367 295.510,235.956 292.745,237.186 290.625 C 241.811 282.650,244.269 278.391,245.090 276.924 C 245.556 276.092,246.922 273.733,248.125 271.681 C 249.328 269.629,250.667 267.310,251.099 266.527 C 251.532 265.745,252.403 264.260,253.035 263.229 C 253.666 262.198,254.499 260.740,254.885 259.990 C 255.272 259.240,256.346 257.389,257.273 255.877 C 258.200 254.364,258.958 253.089,258.958 253.042 C 258.958 252.995,259.626 251.799,260.442 250.384 C 261.257 248.970,262.459 246.875,263.112 245.729 C 263.765 244.583,264.848 242.708,265.519 241.563 C 266.189 240.417,267.269 238.542,267.918 237.396 C 268.568 236.250,269.757 234.188,270.562 232.813 C 271.366 231.438,272.545 229.422,273.182 228.333 C 273.819 227.245,274.924 225.323,275.638 224.063 C 276.352 222.802,277.708 220.458,278.651 218.854 C 279.595 217.250,280.532 215.609,280.734 215.208 C 280.936 214.807,281.916 213.120,282.911 211.458 C 283.907 209.797,285.130 207.688,285.629 206.771 C 286.129 205.854,286.835 204.635,287.198 204.063 C 287.562 203.490,288.655 201.615,289.627 199.896 C 292.091 195.542,293.268 193.498,296.465 188.021 C 297.001 187.104,297.811 185.698,298.267 184.896 C 298.723 184.094,299.768 182.291,300.590 180.890 C 301.411 179.489,302.083 178.290,302.083 178.227 C 302.083 178.163,302.663 177.153,303.372 175.983 C 304.793 173.634,305.772 171.946,306.721 170.208 C 307.531 168.725,308.046 167.845,308.855 166.563 C 309.216 165.990,310.362 164.021,311.402 162.188 C 314.351 156.987,315.563 154.877,317.088 152.292 C 317.865 150.974,319.198 148.677,320.051 147.188 C 322.982 142.067,324.839 138.851,325.824 137.188 C 326.367 136.271,327.252 134.724,327.791 133.750 C 328.329 132.776,329.387 130.948,330.142 129.688 C 330.897 128.427,331.890 126.699,332.349 125.847 C 332.808 124.995,333.522 123.772,333.936 123.130 C 334.349 122.488,335.109 121.189,335.625 120.244 C 336.141 119.299,337.396 117.100,338.416 115.357 C 339.435 113.614,340.615 111.578,341.037 110.833 C 341.460 110.089,342.462 108.354,343.264 106.979 C 344.067 105.604,345.178 103.682,345.733 102.708 C 346.289 101.734,347.721 99.250,348.916 97.188 C 350.110 95.125,352.155 91.583,353.459 89.316 C 354.763 87.049,356.159 84.680,356.561 84.051 C 356.963 83.423,357.292 82.817,357.292 82.704 C 357.292 82.571,302.754 82.500,200.313 82.500 C 91.789 82.500,43.333 82.567,43.333 82.717 M196.873 110.052 L 196.872 112.813 195.988 113.309 C 195.502 113.583,193.042 114.999,190.521 116.458 C 188.000 117.916,183.125 120.729,179.688 122.709 C 176.250 124.689,171.703 127.313,169.583 128.539 C 167.464 129.765,163.479 132.065,160.729 133.649 C 157.979 135.232,154.392 137.309,152.757 138.264 C 151.122 139.219,149.690 140.000,149.575 140.000 C 149.460 140.000,147.329 138.835,144.839 137.411 C 138.658 133.876,121.550 124.127,105.685 115.099 C 98.441 110.977,92.512 107.534,92.508 107.448 C 92.503 107.362,115.984 107.292,144.688 107.292 L 196.875 107.292 196.873 110.052 M307.917 107.484 C 307.917 107.590,307.049 108.166,305.990 108.763 C 304.930 109.360,302.797 110.576,301.250 111.465 C 299.703 112.354,293.047 116.150,286.458 119.900 C 279.870 123.651,270.682 128.882,266.042 131.524 C 261.401 134.166,256.104 137.191,254.271 138.246 C 250.966 140.150,250.933 140.163,250.318 139.845 C 249.978 139.669,248.384 138.759,246.776 137.823 C 242.855 135.539,237.146 132.236,227.500 126.670 C 218.899 121.706,217.458 120.875,208.958 115.969 L 203.438 112.783 203.379 110.037 L 203.321 107.292 255.619 107.292 C 287.512 107.292,307.917 107.367,307.917 107.484 M97.781 117.994 C 104.957 122.091,116.712 128.795,139.115 141.568 L 145.625 145.280 145.625 173.059 L 145.625 200.839 144.531 201.536 C 143.930 201.920,142.909 202.531,142.263 202.894 L 141.088 203.556 137.334 197.038 C 135.270 193.454,132.605 188.833,131.412 186.771 C 130.219 184.708,128.134 181.099,126.778 178.750 C 125.422 176.401,121.360 169.370,117.751 163.125 C 114.142 156.880,110.516 150.599,109.692 149.167 C 108.868 147.734,106.944 144.406,105.416 141.771 C 103.888 139.135,101.588 135.151,100.304 132.917 C 99.020 130.682,95.942 125.348,93.464 121.062 C 90.986 116.776,88.958 113.227,88.958 113.175 C 88.958 112.978,89.845 113.462,97.781 117.994 M311.393 113.413 C 311.295 113.667,309.406 116.950,300.350 132.604 C 299.090 134.781,297.170 138.109,296.083 140.000 C 294.996 141.891,292.049 147.000,289.533 151.354 C 287.018 155.708,283.905 161.099,282.614 163.333 C 276.874 173.273,274.612 177.186,272.918 180.104 C 271.920 181.823,268.488 187.763,265.292 193.305 C 262.095 198.847,259.369 203.425,259.234 203.478 C 259.099 203.531,257.974 202.973,256.734 202.237 L 254.479 200.899 254.479 173.217 L 254.479 145.535 260.833 141.917 C 284.714 128.320,295.724 122.038,302.917 117.903 C 311.417 113.017,311.577 112.932,311.393 113.413 M220.104 129.901 C 230.188 135.719,239.656 141.177,241.146 142.030 C 242.635 142.884,243.931 143.654,244.024 143.742 C 244.211 143.918,243.394 144.396,226.042 154.276 C 219.453 158.027,210.950 162.872,207.146 165.042 L 200.229 168.987 197.354 167.329 C 192.181 164.344,157.621 144.656,156.927 144.297 C 155.977 143.806,155.972 143.811,158.915 142.159 C 160.371 141.341,165.125 138.614,169.479 136.099 C 173.833 133.584,182.318 128.685,188.333 125.212 C 194.349 121.739,199.453 118.772,199.676 118.619 C 200.027 118.379,200.195 118.408,200.926 118.832 C 201.391 119.102,210.021 124.083,220.104 129.901 M161.630 154.448 C 166.520 157.238,176.333 162.832,183.438 166.877 C 190.542 170.922,196.518 174.373,196.719 174.544 C 197.105 174.875,197.311 226.096,196.927 226.314 C 196.841 226.363,194.802 225.261,192.396 223.864 C 187.381 220.954,175.968 214.362,170.000 210.929 C 167.766 209.643,162.844 206.805,159.063 204.621 L 152.188 200.650 152.135 174.886 C 152.087 151.493,152.112 149.133,152.410 149.248 C 152.591 149.317,156.740 151.657,161.630 154.448 M247.915 175.156 L 247.913 200.938 245.050 202.591 C 243.476 203.500,240.125 205.433,237.604 206.886 C 235.083 208.340,226.420 213.338,218.351 217.994 C 210.283 222.649,203.651 226.458,203.612 226.458 C 203.573 226.458,203.542 214.797,203.542 200.544 L 203.542 174.629 205.677 173.390 C 206.852 172.709,213.672 168.817,220.833 164.741 C 227.995 160.665,236.995 155.541,240.833 153.354 C 244.672 151.167,247.836 149.377,247.865 149.376 C 247.893 149.376,247.916 160.977,247.915 175.156 M152.918 208.564 C 156.530 210.650,158.490 211.781,166.146 216.196 C 168.323 217.452,171.979 219.563,174.271 220.887 C 176.563 222.212,180.453 224.458,182.917 225.877 C 185.380 227.296,189.576 229.716,192.240 231.254 L 197.083 234.051 197.083 267.026 C 197.083 285.161,197.013 299.999,196.927 299.998 C 196.841 299.996,196.195 298.989,195.492 297.758 C 194.789 296.528,193.020 293.458,191.563 290.938 C 190.105 288.417,188.047 284.854,186.990 283.021 C 185.932 281.188,183.820 277.531,182.295 274.896 C 180.770 272.260,178.632 268.557,177.543 266.667 C 175.457 263.046,169.672 253.026,165.514 245.833 C 164.156 243.484,162.234 240.156,161.244 238.438 C 160.254 236.719,156.101 229.527,152.016 222.456 C 147.931 215.385,144.564 209.489,144.534 209.353 C 144.482 209.120,148.614 206.488,149.064 206.468 C 149.180 206.463,150.914 207.406,152.918 208.564 M254.688 208.525 C 255.375 208.941,255.914 209.372,255.884 209.484 C 255.855 209.596,253.936 212.969,251.620 216.979 C 249.303 220.990,246.601 225.677,245.614 227.396 C 243.839 230.489,233.901 247.693,225.518 262.188 C 223.132 266.313,220.370 271.094,219.380 272.813 C 216.093 278.516,212.802 284.214,209.995 289.063 C 208.469 291.698,206.472 295.167,205.557 296.771 C 204.643 298.375,203.815 299.777,203.718 299.885 C 203.621 299.994,203.542 285.224,203.542 267.062 L 203.542 234.041 209.635 230.528 C 212.987 228.595,217.135 226.199,218.854 225.204 C 220.573 224.208,224.135 222.149,226.771 220.627 C 229.406 219.106,233.109 216.968,235.000 215.877 C 240.618 212.634,245.981 209.527,248.646 207.974 L 251.146 206.516 252.292 207.143 C 252.922 207.488,254.000 208.110,254.688 208.525 M239.839 295.156 C 238.696 296.980,237.727 298.636,237.066 299.896 C 236.706 300.583,235.822 302.130,235.104 303.333 C 234.385 304.536,233.052 306.833,232.141 308.438 C 230.398 311.510,227.726 316.144,224.693 321.354 C 221.424 326.970,217.237 334.238,216.351 335.833 C 215.874 336.693,214.771 338.587,213.901 340.043 C 213.031 341.499,211.880 343.514,211.344 344.522 C 210.807 345.530,210.253 346.495,210.112 346.667 C 209.737 347.125,207.924 350.238,206.776 352.396 C 206.227 353.427,205.522 354.646,205.208 355.104 C 204.895 355.563,204.196 356.734,203.655 357.708 C 199.818 364.611,200.257 364.125,199.373 362.456 C 198.991 361.735,197.963 359.927,197.088 358.438 C 196.212 356.948,194.995 354.839,194.382 353.750 C 193.770 352.661,192.779 350.970,192.181 349.992 C 191.582 349.013,190.838 347.710,190.527 347.096 C 190.216 346.481,189.143 344.610,188.143 342.937 C 187.143 341.264,185.590 338.583,184.692 336.979 C 183.793 335.375,182.956 333.934,182.831 333.778 C 182.706 333.622,182.089 332.573,181.458 331.448 C 180.828 330.324,179.834 328.577,179.250 327.566 C 178.666 326.556,177.877 325.167,177.497 324.479 C 177.117 323.792,176.428 322.620,175.967 321.875 C 175.505 321.130,174.607 319.580,173.970 318.431 C 172.888 316.476,171.787 314.575,167.037 306.458 C 165.998 304.682,164.848 302.667,164.482 301.979 C 163.823 300.739,160.904 295.835,160.711 295.641 C 160.342 295.273,152.524 303.652,152.818 304.100 C 152.987 304.358,154.167 306.377,155.440 308.587 C 159.169 315.062,162.377 320.602,163.466 322.448 C 164.023 323.393,164.995 325.073,165.625 326.180 C 166.255 327.287,167.086 328.717,167.471 329.357 C 167.857 329.997,168.570 331.224,169.057 332.083 C 169.544 332.943,170.575 334.724,171.348 336.042 C 172.122 337.359,173.087 339.047,173.493 339.792 C 173.899 340.536,174.676 341.856,175.219 342.724 C 175.763 343.592,176.488 344.858,176.832 345.537 C 177.175 346.215,178.089 347.802,178.862 349.063 C 179.635 350.323,180.502 351.776,180.787 352.292 C 181.431 353.454,184.614 358.920,185.430 360.263 C 185.761 360.809,186.030 361.304,186.026 361.363 C 186.023 361.423,186.699 362.617,187.528 364.017 C 188.358 365.417,189.658 367.641,190.417 368.958 C 191.176 370.276,192.723 372.948,193.854 374.896 C 194.986 376.844,196.689 379.797,197.639 381.458 C 198.590 383.120,199.464 384.643,199.582 384.844 C 200.073 385.682,200.009 385.769,203.770 379.179 C 204.526 377.854,206.347 374.708,207.817 372.188 C 209.286 369.667,210.926 366.807,211.459 365.833 C 211.992 364.859,213.227 362.703,214.203 361.042 C 216.196 357.646,216.962 356.326,219.277 352.292 C 220.165 350.745,221.613 348.260,222.495 346.771 C 223.377 345.281,224.456 343.406,224.893 342.604 C 225.330 341.802,226.270 340.161,226.982 338.958 C 227.694 337.755,229.380 334.849,230.728 332.500 C 232.077 330.151,234.020 326.791,235.046 325.034 C 237.051 321.601,239.345 317.618,241.246 314.271 C 241.897 313.125,243.172 310.902,244.079 309.332 C 244.987 307.761,246.151 305.746,246.666 304.853 C 247.182 303.960,247.785 302.926,248.007 302.556 L 248.411 301.882 244.570 298.030 C 240.153 293.600,240.633 293.891,239.839 295.156 " stroke="none" fill="#040404" fill-rule="evenodd"></path><path id="path3" d="M92.500 107.448 C 92.500 107.534,115.943 107.580,144.595 107.551 L 196.690 107.498 196.626 110.197 C 196.591 111.682,196.636 112.824,196.725 112.734 C 196.815 112.644,196.862 111.406,196.830 109.983 L 196.771 107.396 144.635 107.343 C 115.961 107.314,92.500 107.361,92.500 107.448 M203.424 107.565 C 203.366 107.715,203.349 108.910,203.386 110.221 L 203.453 112.604 203.497 110.054 L 203.542 107.504 212.552 107.448 L 221.563 107.391 212.546 107.341 C 205.265 107.301,203.508 107.344,203.424 107.565 " stroke="none" fill="#7c7c7c" fill-rule="evenodd"></path><path id="path4" d="M243.090 107.448 C 255.044 107.478,274.544 107.478,286.423 107.448 C 298.302 107.418,288.521 107.394,264.688 107.394 C 240.854 107.394,231.135 107.418,243.090 107.448 M145.518 173.021 C 145.518 188.375,145.543 194.626,145.573 186.911 C 145.603 179.196,145.603 166.634,145.573 158.994 C 145.543 151.355,145.518 157.667,145.518 173.021 M254.476 173.229 C 254.476 188.469,254.501 194.672,254.531 187.015 C 254.562 179.358,254.562 166.889,254.531 159.307 C 254.501 151.724,254.476 157.990,254.476 173.229 M196.875 200.563 C 196.818 214.794,196.842 226.367,196.928 226.280 C 197.014 226.194,197.061 214.550,197.032 200.405 L 196.979 174.688 196.875 200.563 M196.824 266.979 C 196.795 285.141,196.841 300.000,196.927 300.000 C 197.013 300.000,197.083 285.141,197.083 266.979 C 197.083 248.818,197.037 233.958,196.980 233.958 C 196.924 233.958,196.854 248.818,196.824 266.979 " stroke="none" fill="#5a4145" fill-rule="evenodd"></path></g></svg>